HIERARCHY
ROOT Hips
{
	OFFSET 0.000000 0.000000 0.000000
	CHANNELS 6 Xposition Yposition Zposition Zrotation Yrotation Xrotation 
	JOINT LHipJoint
	{
		OFFSET 0.000000 0.000000 0.000000
		CHANNELS 3 Zrotation Yrotation Xrotation
		JOINT LeftUpLeg
		{
			OFFSET 1.363060 -1.794630 0.839290
			CHANNELS 3 Zrotation Yrotation Xrotation
			JOINT LeftLeg
			{
				OFFSET 2.448110 -6.726130 0.000000
				CHANNELS 3 Zrotation Yrotation Xrotation
				JOINT LeftFoot
				{
					OFFSET 2.562200 -7.039590 0.000000
					CHANNELS 3 Zrotation Yrotation Xrotation
					JOINT LeftToeBase
					{
						OFFSET 0.157640 -0.433110 2.322550
						CHANNELS 3 Zrotation Yrotation Xrotation
						End Site
						{
							OFFSET 0.000000 0.000000 0.000000
						}
					}
				}
			}
		}
	}
	JOINT RHipJoint
	{
		OFFSET 0.000000 0.000000 0.000000
		CHANNELS 3 Zrotation Yrotation Xrotation
		JOINT RightUpLeg
		{
			OFFSET -1.305520 -1.794630 0.839290
			CHANNELS 3 Zrotation Yrotation Xrotation
			JOINT RightLeg
			{
				OFFSET -2.542530 -6.985550 0.000000
				CHANNELS 3 Zrotation Yrotation Xrotation
				JOINT RightFoot
				{
					OFFSET -2.568260 -7.056230 0.000000
					CHANNELS 3 Zrotation Yrotation Xrotation
					JOINT RightToeBase
					{
						OFFSET -0.164730 -0.452590 2.363150
						CHANNELS 3 Zrotation Yrotation Xrotation
						End Site
						{
							OFFSET 0.000000 0.000000 0.000000
						}
					}
				}
			}
		}
	}
}
MOTION
Frames: 11
Frame Time: 0.008333
-20.896295 15.817841 -0.539673 9.265871 85.830895 37.511393 -8.313902 -2.085191 4.208560 -4.024312 -7.997973 -70.542735 -0.636378 1.924494 38.562175 2.084954 10.109093 2.186209 2.695800 -0.000000 -36.887999 10.725652 -3.333569 -0.590810 4.065593 -3.335856 3.929571 2.193927 0.373358 5.611381 -0.407183 -0.611584 -5.496547 -0.130400 -0.000000 -78.238899
-20.685120 15.823986 -0.560159 10.089274 85.905616 38.411419 -8.279129 -2.079850 4.064997 -4.580327 -7.837997 -70.520768 -0.598332 2.032387 39.962582 2.084628 10.066142 1.758809 2.586100 -0.000000 -36.187799 10.859424 -3.480713 -0.554526 3.723673 -3.370878 3.532791 2.096387 0.117325 7.071612 -0.354477 -0.592327 -3.747680 -0.191600 0.000000 -80.859200
-20.474981 15.834773 -0.582017 10.808231 85.973061 39.172333 -8.251587 -2.061620 3.914546 -5.156410 -7.644442 -70.351782 -0.584717 2.124480 41.217616 2.078803 9.956883 1.065573 2.415500 0.000000 -35.513200 10.988048 -3.621908 -0.541961 3.395299 -3.493256 3.022065 1.982304 -0.154404 8.728331 -0.316243 -0.602788 -1.818198 -0.246700 -0.000000 -83.384499
-20.266162 15.849913 -0.605531 11.395668 86.034395 39.767093 -8.235500 -2.031062 3.762507 -5.730536 -7.427873 -70.039528 -0.591602 2.201052 42.327744 2.068979 9.791908 0.147569 2.195901 -0.000000 -34.898700 11.108188 -3.753921 -0.554171 3.085761 -3.712690 2.393227 1.847586 -0.437494 10.581146 -0.299554 -0.667824 0.305265 -0.298899 -0.000000 -85.709900
-20.059036 15.868899 -0.630518 11.941542 86.093109 40.286101 -8.227282 -1.987750 3.613843 -6.296131 -7.206620 -69.589822 -0.615495 2.260963 43.295724 2.057235 9.587875 -0.944112 1.942500 0.000000 -34.334900 11.228956 -3.871841 -0.593860 2.778331 -4.063634 1.620461 1.690205 -0.729172 12.664895 -0.307867 -0.778169 2.606922 -0.347700 -0.000000 -87.646800
-19.853972 15.891331 -0.656842 12.496571 86.153485 40.784876 -8.224551 -1.932669 3.473731 -6.840446 -6.997874 -69.014841 -0.651770 2.303133 44.121579 2.046208 9.365263 -2.145708 1.672399 0.000000 -33.848900 11.354649 -3.969277 -0.658433 2.469703 -4.546255 0.697254 1.508147 -1.021953 14.977290 -0.348217 -0.954222 5.068162 -0.399300 0.000000 -88.992200
-19.651189 15.916996 -0.684535 13.048190 86.219446 41.259335 -8.228155 -1.868290 3.347289 -7.344145 -6.814817 -68.331570 -0.695107 2.327262 44.804804 2.038601 9.145271 -3.391276 1.401500 -0.000000 -33.473500 11.482071 -4.039202 -0.741495 2.172673 -5.131576 -0.361565 1.302264 -1.303992 17.473976 -0.428959 -1.241251 7.663558 -0.472000 0.000000 -89.604500
-19.450846 15.945373 -0.712824 13.755708 86.296087 41.874573 -8.226945 -1.794430 3.236368 -7.817528 -6.675453 -67.554422 -0.742332 2.331787 45.348415 2.036757 8.949945 -4.623477 1.142700 0.000000 -33.195900 11.625367 -4.073140 -0.839199 1.869550 -5.817921 -1.572138 1.079073 -1.569305 20.175529 -0.550415 -1.633370 10.307684 -0.576300 -0.000000 -89.194200
-19.253356 15.976394 -0.741678 14.574747 86.385493 42.594939 -8.222771 -1.713924 3.143898 -8.245205 -6.585355 -66.702740 -0.788886 2.317702 45.754197 2.042535 8.796292 -5.792179 0.904701 0.000000 -33.030400 11.775736 -4.065432 -0.944155 1.582768 -6.556359 -2.903769 0.849162 -1.807135 23.014606 -0.713710 -2.175104 12.921545 -0.742500 -0.000000 -87.768400
-19.058553 16.009772 -0.770283 15.609936 86.486914 43.529097 -8.206882 -1.626307 3.067908 -8.642145 -6.548128 -65.787377 -0.833299 2.285160 46.026143 2.056678 8.696785 -6.861981 0.692300 0.000000 -32.960900 11.939661 -4.012113 -1.051394 1.306411 -7.319117 -4.352121 0.625528 -2.016388 25.983544 -0.911342 -2.867983 15.377145 -0.989300 0.000000 -85.232900
-18.867003 16.045566 -0.798650 16.774802 86.596561 44.593987 -8.183950 -1.533546 3.007999 -8.999113 -6.556471 -64.821112 -0.873554 2.236873 46.168045 2.079107 8.655960 -7.812580 0.506300 0.000000 -32.976100 12.103648 -3.915470 -1.157472 1.064029 -8.061590 -5.882877 0.421114 -2.196977 29.016433 -1.133199 -3.730740 17.561618 -1.340000 0.000000 -81.886001
